<svg width="505" height="24" viewBox="0 0 505 24" fill="none" xmlns="http://www.w3.org/2000/svg">
<path d="M0.835227 19V5.18182H5.2951C6.27569 5.18182 7.09434 5.37074 7.75107 5.74858C8.41229 6.12192 8.90933 6.63021 9.24219 7.27344C9.57955 7.91667 9.74823 8.64086 9.74823 9.44602C9.74823 10.2512 9.5818 10.9776 9.24893 11.6254C8.91608 12.2686 8.42128 12.7791 7.76456 13.157C7.10784 13.5303 6.29143 13.717 5.31534 13.717H1.80682V12.5835H5.28161C6.0058 12.5835 6.6063 12.4485 7.0831 12.1786C7.5599 11.9042 7.91525 11.5309 8.14915 11.0586C8.38755 10.5863 8.50675 10.0488 8.50675 9.44602C8.50675 8.84328 8.38755 8.30575 8.14915 7.83345C7.91525 7.36115 7.55765 6.99006 7.07635 6.72017C6.59955 6.45028 5.99456 6.31534 5.26136 6.31534H2.09695V19H0.835227ZM22.7802 19V5.18182H27.2401C28.2207 5.18182 29.0393 5.35949 29.6961 5.71484C30.3573 6.0657 30.8543 6.55374 31.1872 7.17898C31.5245 7.79972 31.6932 8.51267 31.6932 9.31783C31.6932 10.123 31.5245 10.8337 31.1872 11.4499C30.8543 12.0662 30.3595 12.5475 29.7028 12.8938C29.0461 13.2402 28.2319 13.4134 27.2603 13.4134H23.4617V12.2596H27.2266C27.9463 12.2596 28.5446 12.1404 29.0213 11.902C29.5026 11.6636 29.8602 11.324 30.0941 10.8832C30.3325 10.4424 30.4517 9.92057 30.4517 9.31783C30.4517 8.71508 30.3325 8.1888 30.0941 7.73899C29.8557 7.28468 29.4959 6.93383 29.0146 6.68643C28.5378 6.43904 27.9351 6.31534 27.2064 6.31534H24.0419V19H22.7802ZM28.8729 12.7656L32.2735 19H30.8161L27.4493 12.7656H28.8729ZM56.165 12.0909C56.165 13.5303 55.9086 14.783 55.3959 15.8491C54.8831 16.9106 54.1769 17.7338 53.2773 18.3185C52.3821 18.8988 51.3521 19.1889 50.1871 19.1889C49.022 19.1889 47.9897 18.8988 47.0901 18.3185C46.195 17.7338 45.491 16.9106 44.9782 15.8491C44.47 14.783 44.2158 13.5303 44.2158 12.0909C44.2158 10.6515 44.47 9.40104 44.9782 8.33949C45.491 7.27344 46.1972 6.45028 47.0969 5.87003C47.9965 5.28527 49.0265 4.9929 50.1871 4.9929C51.3521 4.9929 52.3821 5.28527 53.2773 5.87003C54.1769 6.45028 54.8831 7.27344 55.3959 8.33949C55.9086 9.40104 56.165 10.6515 56.165 12.0909ZM54.9371 12.0909C54.9371 10.8539 54.7301 9.79463 54.3163 8.913C53.9025 8.02687 53.338 7.3499 52.6228 6.8821C51.9076 6.4143 51.0957 6.1804 50.1871 6.1804C49.2829 6.1804 48.4733 6.4143 47.7581 6.8821C47.0429 7.3499 46.4761 8.02462 46.0578 8.90625C45.644 9.78788 45.4371 10.8494 45.4371 12.0909C45.4371 13.3279 45.644 14.3872 46.0578 15.2688C46.4716 16.1504 47.0361 16.8274 47.7513 17.2997C48.4665 17.7675 49.2784 18.0014 50.1871 18.0014C51.0957 18.0014 51.9076 17.7675 52.6228 17.2997C53.3425 16.8319 53.9092 16.1572 54.3231 15.2756C54.7369 14.3894 54.9416 13.3279 54.9371 12.0909ZM74.5222 5.18182H75.784V15.1474C75.7795 16.047 75.6175 16.7982 75.2982 17.4009C74.9788 17.9992 74.538 18.4467 73.9757 18.7436C73.4134 19.0405 72.768 19.1889 72.0393 19.1889C71.3241 19.1889 70.6853 19.0562 70.1231 18.7908C69.5608 18.5254 69.1178 18.1521 68.7939 17.6708C68.4745 17.1895 68.3148 16.625 68.3148 15.9773H69.5563C69.5563 16.3866 69.6643 16.7487 69.8802 17.0636C70.0961 17.3739 70.3907 17.6168 70.7641 17.7923C71.1419 17.9677 71.567 18.0554 72.0393 18.0554C72.5296 18.0554 72.9591 17.9519 73.328 17.745C73.7013 17.5381 73.9937 17.221 74.2051 16.7937C74.4165 16.3619 74.5222 15.8131 74.5222 15.1474V5.18182ZM89.5244 19V5.18182H97.54V6.31534H90.7861V11.5174H97.115V12.6509H90.7861V17.8665H97.675V19H89.5244ZM121.698 9.5H120.43C120.335 9.0277 120.164 8.59138 119.917 8.19105C119.674 7.78622 119.368 7.43312 118.999 7.13175C118.63 6.83037 118.212 6.59647 117.744 6.43004C117.276 6.26361 116.77 6.1804 116.226 6.1804C115.354 6.1804 114.557 6.40755 113.838 6.86186C113.122 7.31617 112.549 7.98414 112.117 8.86577C111.69 9.7429 111.476 10.8179 111.476 12.0909C111.476 13.3729 111.69 14.4524 112.117 15.3295C112.549 16.2067 113.122 16.8724 113.838 17.3267C114.557 17.7765 115.354 18.0014 116.226 18.0014C116.77 18.0014 117.276 17.9182 117.744 17.7518C118.212 17.5853 118.63 17.3537 118.999 17.0568C119.368 16.7554 119.674 16.4023 119.917 15.9975C120.164 15.5927 120.335 15.1541 120.43 14.6818H121.698C121.586 15.3161 121.374 15.9076 121.064 16.4563C120.758 17.0006 120.367 17.4774 119.89 17.8867C119.418 18.296 118.873 18.6154 118.257 18.8448C117.641 19.0742 116.964 19.1889 116.226 19.1889C115.066 19.1889 114.036 18.8988 113.136 18.3185C112.236 17.7338 111.53 16.9106 111.017 15.8491C110.509 14.7875 110.255 13.5348 110.255 12.0909C110.255 10.647 110.509 9.39429 111.017 8.33274C111.53 7.27119 112.236 6.45028 113.136 5.87003C114.036 5.28527 115.066 4.9929 116.226 4.9929C116.964 4.9929 117.641 5.1076 118.257 5.337C118.873 5.56191 119.418 5.88127 119.89 6.2951C120.367 6.70443 120.758 7.18123 121.064 7.7255C121.374 8.26977 121.586 8.86127 121.698 9.5ZM133.895 6.31534V5.18182H143.915V6.31534H139.536V19H138.274V6.31534H133.895ZM164.328 8.63636C164.252 7.86719 163.912 7.25544 163.309 6.80114C162.706 6.34683 161.949 6.11967 161.035 6.11967C160.392 6.11967 159.825 6.22988 159.335 6.45028C158.849 6.67069 158.467 6.97656 158.188 7.3679C157.914 7.75473 157.777 8.19555 157.777 8.69034C157.777 9.05469 157.855 9.37405 158.013 9.64844C158.17 9.92282 158.382 10.159 158.647 10.3569C158.917 10.5503 159.214 10.7167 159.538 10.8562C159.866 10.9956 160.197 11.1126 160.529 11.207L161.987 11.6254C162.428 11.7468 162.868 11.902 163.309 12.0909C163.75 12.2798 164.153 12.5182 164.517 12.8061C164.886 13.0895 165.18 13.4381 165.401 13.8519C165.626 14.2612 165.738 14.7538 165.738 15.3295C165.738 16.0672 165.547 16.7307 165.165 17.32C164.782 17.9092 164.234 18.377 163.518 18.7234C162.803 19.0652 161.946 19.2362 160.948 19.2362C160.008 19.2362 159.191 19.081 158.499 18.7706C157.806 18.4557 157.262 18.0217 156.866 17.4684C156.47 16.9151 156.247 16.2741 156.198 15.5455H157.493C157.538 16.0897 157.718 16.5508 158.033 16.9286C158.348 17.3065 158.757 17.5943 159.261 17.7923C159.765 17.9857 160.327 18.0824 160.948 18.0824C161.636 18.0824 162.248 17.9677 162.783 17.7383C163.323 17.5044 163.746 17.1805 164.051 16.7667C164.362 16.3484 164.517 15.8626 164.517 15.3093C164.517 14.8415 164.396 14.4502 164.153 14.1353C163.91 13.8159 163.57 13.5483 163.134 13.3324C162.702 13.1165 162.2 12.9253 161.629 12.7589L159.976 12.2731C158.892 11.9492 158.051 11.5017 157.453 10.9304C156.854 10.3591 156.555 9.63044 156.555 8.74432C156.555 8.00213 156.753 7.3499 157.149 6.78764C157.549 6.22088 158.089 5.78007 158.768 5.4652C159.452 5.14583 160.219 4.98615 161.069 4.98615C161.928 4.98615 162.688 5.14358 163.35 5.45845C164.011 5.77332 164.535 6.20739 164.922 6.76065C165.313 7.30942 165.522 7.93466 165.549 8.63636H164.328ZM195.878 0.728693V23.4531H194.832V0.728693H195.878ZM225.605 19V5.18182H233.601V6.31534H226.867V11.5174H232.973V12.6509H226.867V19H225.605ZM246.808 19V5.18182H251.268C252.248 5.18182 253.067 5.35949 253.724 5.71484C254.385 6.0657 254.882 6.55374 255.215 7.17898C255.552 7.79972 255.721 8.51267 255.721 9.31783C255.721 10.123 255.552 10.8337 255.215 11.4499C254.882 12.0662 254.387 12.5475 253.731 12.8938C253.074 13.2402 252.26 13.4134 251.288 13.4134H247.489V12.2596H251.254C251.974 12.2596 252.572 12.1404 253.049 11.902C253.53 11.6636 253.888 11.324 254.122 10.8832C254.36 10.4424 254.48 9.92057 254.48 9.31783C254.48 8.71508 254.36 8.1888 254.122 7.73899C253.884 7.28468 253.524 6.93383 253.042 6.68643C252.566 6.43904 251.963 6.31534 251.234 6.31534H248.07V19H246.808ZM252.901 12.7656L256.301 19H254.844L251.477 12.7656H252.901ZM268.864 19V5.18182H276.88V6.31534H270.126V11.5174H276.455V12.6509H270.126V17.8665H277.015V19H268.864ZM290.216 19V5.18182H298.231V6.31534H291.477V11.5174H297.806V12.6509H291.477V17.8665H298.366V19H290.216ZM311.567 19V5.18182H312.829V17.8665H319.414V19H311.567ZM333.217 19H331.894L336.921 5.18182H338.27L343.297 19H341.974L337.643 6.82138H337.548L333.217 19ZM334.168 13.7035H341.023V14.837H334.168V13.7035ZM366.497 5.18182V19H365.269L357.105 7.42862H356.997V19H355.735V5.18182H356.956L365.147 16.7667H365.255V5.18182H366.497ZM391.063 9.5H389.795C389.7 9.0277 389.529 8.59138 389.282 8.19105C389.039 7.78622 388.733 7.43312 388.364 7.13175C387.995 6.83037 387.577 6.59647 387.109 6.43004C386.642 6.26361 386.136 6.1804 385.591 6.1804C384.719 6.1804 383.922 6.40755 383.203 6.86186C382.488 7.31617 381.914 7.98414 381.482 8.86577C381.055 9.7429 380.841 10.8179 380.841 12.0909C380.841 13.3729 381.055 14.4524 381.482 15.3295C381.914 16.2067 382.488 16.8724 383.203 17.3267C383.922 17.7765 384.719 18.0014 385.591 18.0014C386.136 18.0014 386.642 17.9182 387.109 17.7518C387.577 17.5853 387.995 17.3537 388.364 17.0568C388.733 16.7554 389.039 16.4023 389.282 15.9975C389.529 15.5927 389.7 15.1541 389.795 14.6818H391.063C390.951 15.3161 390.739 15.9076 390.429 16.4563C390.123 17.0006 389.732 17.4774 389.255 17.8867C388.783 18.296 388.238 18.6154 387.622 18.8448C387.006 19.0742 386.329 19.1889 385.591 19.1889C384.431 19.1889 383.401 18.8988 382.501 18.3185C381.601 17.7338 380.895 16.9106 380.382 15.8491C379.874 14.7875 379.62 13.5348 379.62 12.0909C379.62 10.647 379.874 9.39429 380.382 8.33274C380.895 7.27119 381.601 6.45028 382.501 5.87003C383.401 5.28527 384.431 4.9929 385.591 4.9929C386.329 4.9929 387.006 5.1076 387.622 5.337C388.238 5.56191 388.783 5.88127 389.255 6.2951C389.732 6.70443 390.123 7.18123 390.429 7.7255C390.739 8.26977 390.951 8.86127 391.063 9.5ZM404.097 19V5.18182H412.112V6.31534H405.359V11.5174H411.687V12.6509H405.359V17.8665H412.247V19H404.097ZM442.481 0.728693V23.4531H441.435V0.728693H442.481ZM476.399 19.1889C475.549 19.1889 474.789 19.036 474.118 18.7301C473.448 18.4197 472.917 17.9902 472.526 17.4414C472.135 16.8926 471.928 16.2607 471.905 15.5455H473.18C473.203 16.0492 473.358 16.4901 473.646 16.8679C473.934 17.2412 474.316 17.5336 474.793 17.745C475.27 17.9519 475.801 18.0554 476.385 18.0554C477.024 18.0554 477.586 17.9362 478.072 17.6978C478.562 17.4594 478.945 17.1333 479.219 16.7195C479.498 16.3011 479.638 15.8288 479.638 15.3026C479.638 14.7448 479.496 14.2522 479.212 13.8249C478.929 13.3976 478.522 13.0647 477.991 12.8263C477.465 12.5879 476.835 12.4688 476.102 12.4688H475.292V11.3352H476.102C476.7 11.3352 477.229 11.2273 477.688 11.0114C478.151 10.791 478.515 10.4828 478.781 10.087C479.046 9.69117 479.179 9.22562 479.179 8.69034C479.179 8.18205 479.064 7.73449 478.835 7.34766C478.605 6.96082 478.281 6.6572 477.863 6.43679C477.449 6.21638 476.966 6.10618 476.412 6.10618C475.877 6.10618 475.387 6.20964 474.941 6.41655C474.496 6.62346 474.136 6.91584 473.862 7.29368C473.592 7.67152 473.448 8.11908 473.43 8.63636H472.209C472.227 7.91667 472.425 7.28468 472.803 6.74041C473.185 6.19164 473.691 5.76432 474.321 5.45845C474.955 5.14808 475.657 4.9929 476.426 4.9929C477.24 4.9929 477.944 5.15933 478.538 5.49219C479.131 5.82505 479.59 6.26811 479.914 6.82138C480.243 7.37015 480.407 7.97514 480.407 8.63636C480.407 9.42353 480.193 10.0982 479.766 10.6605C479.338 11.2183 478.763 11.6051 478.038 11.821V11.9087C478.92 12.0842 479.613 12.4755 480.117 13.0827C480.625 13.6855 480.879 14.4254 480.879 15.3026C480.879 16.0402 480.686 16.7037 480.299 17.293C479.912 17.8777 479.381 18.341 478.706 18.6829C478.036 19.0202 477.267 19.1889 476.399 19.1889ZM498.276 19H494.228V5.18182H498.519C499.837 5.18182 500.964 5.4562 501.9 6.00497C502.84 6.55374 503.559 7.34091 504.059 8.36648C504.558 9.39205 504.808 10.6223 504.808 12.0572C504.808 13.5056 504.551 14.7493 504.038 15.7884C503.53 16.8229 502.788 17.6168 501.812 18.1701C500.84 18.7234 499.662 19 498.276 19ZM495.49 17.8665H498.202C499.39 17.8665 500.384 17.6326 501.184 17.1648C501.985 16.697 502.586 16.029 502.986 15.1609C503.386 14.2927 503.586 13.2582 503.586 12.0572C503.582 10.8652 503.384 9.83961 502.993 8.98047C502.606 8.12133 502.03 7.46236 501.265 7.00355C500.505 6.54474 499.565 6.31534 498.445 6.31534H495.49V17.8665Z" fill="#D6D3D3"/>
</svg>
