<svg width="537" height="128" viewBox="0 0 537 128" fill="none" xmlns="http://www.w3.org/2000/svg">
<path d="M34.3949 126L0.40696 2.36363H8.25497L38.4396 114.349H39.1641L68.8658 2.36363H78.0419L107.744 114.349H108.468L138.653 2.36363H146.44L112.452 126H103.759L73.7557 14.7393H73.0916L43.0881 126H34.3949ZM279.993 64.1818C279.993 76.9399 277.779 88.0881 273.352 97.6264C268.925 107.125 262.768 114.51 254.879 119.782C247.031 125.054 237.976 127.69 227.713 127.69C217.41 127.69 208.314 125.054 200.426 119.782C192.578 114.469 186.441 107.064 182.014 97.566C177.586 88.0277 175.373 76.8996 175.373 64.1818C175.373 51.4238 177.586 40.2957 182.014 30.7976C186.481 21.2995 192.639 13.9143 200.487 8.64204C208.335 3.32954 217.41 0.673291 227.713 0.673291C237.976 0.673291 247.031 3.30942 254.879 8.58167C262.768 13.8539 268.925 21.2592 273.352 30.7976C277.779 40.2957 279.993 51.4238 279.993 64.1818ZM272.628 64.1818C272.628 52.7116 270.696 42.7708 266.832 34.3594C263.009 25.9479 257.717 19.4482 250.955 14.8601C244.194 10.2318 236.447 7.91761 227.713 7.91761C218.98 7.91761 211.232 10.2116 204.471 14.7997C197.71 19.3475 192.397 25.8473 188.533 34.299C184.71 42.7105 182.798 52.6714 182.798 64.1818C182.798 75.5715 184.69 85.4922 188.473 93.9439C192.296 102.355 197.589 108.875 204.35 113.504C211.112 118.132 218.899 120.446 227.713 120.446C236.447 120.446 244.194 118.152 250.955 113.564C257.717 108.936 263.009 102.416 266.832 94.0043C270.696 85.5928 272.628 75.652 272.628 64.1818ZM328.183 126V2.36363H366.276C374.084 2.36363 380.805 3.89299 386.44 6.9517C392.074 10.0104 396.401 14.2564 399.419 19.6896C402.438 25.0826 403.947 31.361 403.947 38.5249C403.947 45.6082 402.438 51.8464 399.419 57.2393C396.401 62.5921 392.074 66.7777 386.44 69.7962C380.846 72.8146 374.145 74.3239 366.337 74.3239H332.228V67.2606H366.156C372.515 67.2606 377.948 66.0734 382.455 63.6989C386.963 61.3243 390.424 58.004 392.839 53.7379C395.254 49.4316 396.461 44.3606 396.461 38.5249C396.461 32.6489 395.254 27.5376 392.839 23.191C390.424 18.8042 386.943 15.4034 382.395 12.9886C377.887 10.5739 372.454 9.36647 366.095 9.36647H335.73V126H328.183ZM378.954 69.9773L409.38 126H400.687L370.442 69.9773H378.954ZM452.801 126V2.36363H460.348V74.1428H461.193L526.392 2.36363H536.413L482.745 60.8615L535.93 126H526.512L477.915 66.2947L460.348 85.7337V126H452.801Z" fill="#6E7589" fill-opacity="0.29"/>
</svg>
